<svg xmlns="http://www.w3.org/2000/svg" version="1.1" xmlns:xlink="http://www.w3.org/1999/xlink" xmlns:svgjs="http://svgjs.dev/svgjs" width="128" height="128" viewBox="0 0 128 128"><g transform="matrix(0.8046875,0,0,0.8046875,12.333870967741937,12.333870967741937)"><svg viewBox="0 0 155 155" data-background-color="#ffffff" preserveAspectRatio="xMidYMid meet" height="128" width="128" xmlns="http://www.w3.org/2000/svg" xmlns:xlink="http://www.w3.org/1999/xlink"><g id="tight-bounds" transform="matrix(1,0,0,1,0.25,0.25)"><svg viewBox="0 0 154.5 154.5" height="154.5" width="154.5"><rect width="154.5" height="154.5" fill="url(#db8e98e5-ded3-4ae8-9ae0-5b1a392cc17b)" mask="url(#c73bfae5-7e26-4460-a274-9e04b00f4dc9)" data-fill-palette-color="tertiary"></rect><g><svg></svg></g><g><svg viewBox="0 0 154.5 154.5" height="154.5" width="154.5"><g transform="matrix(1,0,0,1,47.746371,48.81995318733154)"><svg viewBox="0 0 59.00725799999999 56.860093625336916" height="56.860093625336916" width="59.00725799999999"><g><svg viewBox="0 0 59.00725799999999 56.860093625336916" height="56.860093625336916" width="59.00725799999999"><g><svg viewBox="0 0 59.00725799999999 56.860093625336916" height="56.860093625336916" width="59.00725799999999"><g id="textblocktransform"><svg viewBox="0 0 59.00725799999999 56.860093625336916" height="56.860093625336916" width="59.00725799999999" id="textblock"><g><svg viewBox="0 0 59.00725799999999 56.860093625336916" height="56.860093625336916" width="59.00725799999999"><g transform="matrix(1,0,0,1,0,0)"><svg width="59.00725799999999" viewBox="1.7 -35.35 37.099999999999994 35.75" height="56.860093625336916" data-palette-color="#e86514"><path d="M20.25-35.35L20.25-35.35Q24.15-35.35 27.53-34 30.9-32.65 33.43-30.2 35.95-27.75 37.38-24.53 38.8-21.3 38.8-17.55L38.8-17.55Q38.8-13.8 37.38-10.53 35.95-7.25 33.43-4.8 30.9-2.35 27.53-0.98 24.15 0.4 20.25 0.4L20.25 0.4Q16.35 0.4 12.98-0.98 9.6-2.35 7.08-4.8 4.55-7.25 3.13-10.53 1.7-13.8 1.7-17.55L1.7-17.55Q1.7-21.3 3.13-24.55 4.55-27.8 7.08-30.23 9.6-32.65 12.98-34 16.35-35.35 20.25-35.35ZM20.3-30.35L20.3-30.35Q17.7-30.35 15.43-29.38 13.15-28.4 11.4-26.65 9.65-24.9 8.68-22.58 7.7-20.25 7.7-17.55L7.7-17.55Q7.7-14.85 8.7-12.5 9.7-10.15 11.45-8.38 13.2-6.6 15.48-5.6 17.75-4.6 20.3-4.6L20.3-4.6Q22.85-4.6 25.13-5.6 27.4-6.6 29.1-8.38 30.8-10.15 31.78-12.5 32.75-14.85 32.75-17.55L32.75-17.55Q32.75-20.25 31.78-22.58 30.8-24.9 29.1-26.65 27.4-28.4 25.13-29.38 22.85-30.35 20.3-30.35Z" opacity="1" transform="matrix(1,0,0,1,0,0)" fill="#e86514" class="wordmark-text-0" data-fill-palette-color="primary" id="text-0"></path></svg></g></svg></g></svg></g></svg></g></svg></g></svg></g><g><path d="M47.564 35.397A29.504 29.504 0 0 1 106.936 35.397L101.808 35.397A24.376 24.376 0 0 0 52.692 35.397L47.564 35.397M47.564 119.103A29.504 29.504 0 0 0 106.936 119.103L101.808 119.103A24.376 24.376 0 0 1 52.692 119.103L47.564 119.103" fill="url(#db8e98e5-ded3-4ae8-9ae0-5b1a392cc17b)" stroke="transparent" data-fill-palette-color="tertiary"></path></g></svg></g><defs></defs><mask id="c73bfae5-7e26-4460-a274-9e04b00f4dc9"><g id="SvgjsG1694"><svg viewBox="0 0 154.5 154.5" height="154.5" width="154.5"><g><svg></svg></g><g><svg viewBox="0 0 154.5 154.5" height="154.5" width="154.5"><g transform="matrix(1,0,0,1,47.746371,48.81995318733154)"><svg viewBox="0 0 59.00725799999999 56.860093625336916" height="56.860093625336916" width="59.00725799999999"><g><svg viewBox="0 0 59.00725799999999 56.860093625336916" height="56.860093625336916" width="59.00725799999999"><g><svg viewBox="0 0 59.00725799999999 56.860093625336916" height="56.860093625336916" width="59.00725799999999"><g id="SvgjsG1693"><svg viewBox="0 0 59.00725799999999 56.860093625336916" height="56.860093625336916" width="59.00725799999999" id="SvgjsSvg1692"><g><svg viewBox="0 0 59.00725799999999 56.860093625336916" height="56.860093625336916" width="59.00725799999999"><g transform="matrix(1,0,0,1,0,0)"><svg width="59.00725799999999" viewBox="1.7 -35.35 37.099999999999994 35.75" height="56.860093625336916" data-palette-color="#e86514"><path d="M20.25-35.35L20.25-35.35Q24.15-35.35 27.53-34 30.9-32.65 33.43-30.2 35.95-27.75 37.38-24.53 38.8-21.3 38.8-17.55L38.8-17.55Q38.8-13.8 37.38-10.53 35.95-7.25 33.43-4.8 30.9-2.35 27.53-0.98 24.15 0.4 20.25 0.4L20.25 0.4Q16.35 0.4 12.98-0.98 9.6-2.35 7.08-4.8 4.55-7.25 3.13-10.53 1.7-13.8 1.7-17.55L1.7-17.55Q1.7-21.3 3.13-24.55 4.55-27.8 7.08-30.23 9.6-32.65 12.98-34 16.35-35.35 20.25-35.35ZM20.3-30.35L20.3-30.35Q17.7-30.35 15.43-29.38 13.15-28.4 11.4-26.65 9.65-24.9 8.68-22.58 7.7-20.25 7.7-17.55L7.7-17.55Q7.7-14.85 8.7-12.5 9.7-10.15 11.45-8.38 13.2-6.6 15.48-5.6 17.75-4.6 20.3-4.6L20.3-4.6Q22.85-4.6 25.13-5.6 27.4-6.6 29.1-8.38 30.8-10.15 31.78-12.5 32.75-14.85 32.75-17.55L32.75-17.55Q32.75-20.25 31.78-22.58 30.8-24.9 29.1-26.65 27.4-28.4 25.13-29.38 22.85-30.35 20.3-30.35Z" opacity="1" transform="matrix(1,0,0,1,0,0)" fill="black" class="wordmark-text-0" id="SvgjsPath1691"></path></svg></g></svg></g></svg></g></svg></g></svg></g></svg></g><g><path d="M47.564 35.397A29.504 29.504 0 0 1 106.936 35.397L101.808 35.397A24.376 24.376 0 0 0 52.692 35.397L47.564 35.397M47.564 119.103A29.504 29.504 0 0 0 106.936 119.103L101.808 119.103A24.376 24.376 0 0 1 52.692 119.103L47.564 119.103" fill="white" stroke="transparent"></path></g></svg></g><defs><mask></mask></defs></svg><rect width="154.5" height="154.5" fill="black" stroke="none" visibility="hidden"></rect></g></mask><linearGradient x1="0" x2="1" y1="0.5" y2="0.5" id="db8e98e5-ded3-4ae8-9ae0-5b1a392cc17b"><stop stop-color="#ffa62e" offset="0"></stop><stop stop-color="#f71b3d" offset="1"></stop></linearGradient></svg><rect width="154.5" height="154.5" fill="none" stroke="none" visibility="hidden"></rect></g></svg></g></svg>