<svg xmlns="http://www.w3.org/2000/svg" version="1.1" xmlns:xlink="http://www.w3.org/1999/xlink" xmlns:svgjs="http://svgjs.dev/svgjs" width="128" height="128" viewBox="0 0 128 128"><g transform="matrix(0.8046875,0,0,0.8046875,12.333870967741937,12.333870967741937)"><svg viewBox="0 0 155 155" data-background-color="#ffffff" preserveAspectRatio="xMidYMid meet" height="128" width="128" xmlns="http://www.w3.org/2000/svg" xmlns:xlink="http://www.w3.org/1999/xlink"><g id="tight-bounds" transform="matrix(1,0,0,1,0.25,0.25)"><svg viewBox="0 0 154.5 154.5" height="154.5" width="154.5"><g><svg viewBox="0 0 154.5 154.5" height="154.5" width="154.5"><g transform="matrix(1,0,0,1,29.509500000000003,31.53448264781491)"><svg viewBox="0 0 95.481 91.43103470437018" height="91.43103470437018" width="95.481"><g><svg viewBox="0 0 95.481 91.43103470437018" height="91.43103470437018" width="95.481"><g><svg viewBox="0 0 95.481 91.43103470437018" height="91.43103470437018" width="95.481"><g id="textblocktransform"><svg viewBox="0 0 95.481 91.43103470437018" height="91.43103470437018" width="95.481" id="textblock"><g><svg viewBox="0 0 95.481 91.43103470437018" height="91.43103470437018" width="95.481"><g transform="matrix(1,0,0,1,0,0)"><svg width="95.481" viewBox="0.1499999999999999 -36.6 39.9 38.25" height="91.43103470437018" data-palette-color="#e86514"><g class="wordmark-text-0" data-fill-palette-color="primary" id="text-0"><path d="M20.1-35.6L20.1-35.6Q24.2-35.6 27.63-34.25 31.05-32.9 33.63-30.45 36.2-28 37.63-24.73 39.05-21.45 39.05-17.6L39.05-17.6Q39.05-13.7 37.63-10.38 36.2-7.05 33.63-4.58 31.05-2.1 27.63-0.73 24.2 0.65 20.1 0.65L20.1 0.65Q16.05 0.65 12.6-0.73 9.15-2.1 6.58-4.58 4-7.05 2.58-10.38 1.15-13.7 1.15-17.6L1.15-17.6Q1.15-21.45 2.58-24.75 4-28.05 6.58-30.48 9.15-32.9 12.6-34.25 16.05-35.6 20.1-35.6ZM20.2-27.95L20.2-27.95Q18.25-27.95 16.48-27.18 14.7-26.4 13.38-24.98 12.05-23.55 11.3-21.68 10.55-19.8 10.55-17.55L10.55-17.55Q10.55-15.35 11.3-13.43 12.05-11.5 13.4-10.08 14.75-8.65 16.5-7.85 18.25-7.05 20.2-7.05L20.2-7.05Q22.15-7.05 23.88-7.85 25.6-8.65 26.9-10.08 28.2-11.5 28.93-13.43 29.65-15.35 29.65-17.55L29.65-17.55Q29.65-19.8 28.93-21.68 28.2-23.55 26.9-24.98 25.6-26.4 23.88-27.18 22.15-27.95 20.2-27.95Z" fill="#e86514" data-fill-palette-color="primary"></path></g></svg></g></svg></g></svg></g></svg></g></svg></g></svg></g></svg></g><defs></defs></svg><rect width="154.5" height="154.5" fill="none" stroke="none" visibility="hidden"></rect></g></svg></g></svg>